<svg id="Layer_1" data-name="Layer 1" xmlns="http://www.w3.org/2000/svg" viewBox="0 0 472 60"><path d="M13,1.33v22H36.22v-22H48.83V58.68H36.22V33.94H13V58.68H.39V1.33Zm62.24,35V58.68H87.86v-22L109.15,1.33H95.09L81.76,24,68.34,1.33H54.21Zm39.28-35V58.68h12.61V38.12h13.25a24,24,0,0,0,9.16-1.57,17,17,0,0,0,6.14-4.14,15.65,15.65,0,0,0,3.46-5.9,22,22,0,0,0,0-13.62A15.73,15.73,0,0,0,155.69,7a17.21,17.21,0,0,0-6.14-4.14,24,24,0,0,0-9.16-1.56Zm12.61,27V11.13h9.8a25.76,25.76,0,0,1,4.18.32,9.8,9.8,0,0,1,3.53,1.24,6.81,6.81,0,0,1,2.45,2.62,9.2,9.2,0,0,1,.92,4.41,9.24,9.24,0,0,1-.92,4.42,6.78,6.78,0,0,1-2.45,2.61A9.81,9.81,0,0,1,141.12,28a26.93,26.93,0,0,1-4.18.32Zm38.47-27V58.68h43.53V48.08H178.22V34H206v-9.8H178.22V11.93H208.5V1.33Zm48.92,0V58.68h27.78a29.35,29.35,0,0,0,7.51-1,20,20,0,0,0,6.51-3,14.58,14.58,0,0,0,4.54-5.18,15.85,15.85,0,0,0,1.68-7.51,15.91,15.91,0,0,0-2.61-9.2A13.75,13.75,0,0,0,252,27.51a14.24,14.24,0,0,0,5.82-4.74,12.46,12.46,0,0,0,2-7.22A15.44,15.44,0,0,0,258.5,8.8a11,11,0,0,0-3.74-4.38A16,16,0,0,0,249,2.05a35.87,35.87,0,0,0-7.47-.72Zm12.6,23.21V11.13h11.81a18.11,18.11,0,0,1,3.25.28,8.14,8.14,0,0,1,2.77,1,5.26,5.26,0,0,1,1.93,2,6.6,6.6,0,0,1,.72,3.29q0,3.62-2.17,5.23a9,9,0,0,1-5.54,1.6Zm0,24.34V33.13h13.74A10.65,10.65,0,0,1,247.46,35q2.47,1.89,2.48,6.3a8,8,0,0,1-.75,3.7,6.21,6.21,0,0,1-2.06,2.3,8.78,8.78,0,0,1-3,1.2,17.53,17.53,0,0,1-3.53.36Zm40.8-47.55V58.68h43.54V48.08H280.55V34h27.79v-9.8H280.55V11.93h30.28V1.33Zm70.6,0L316.85,58.68h12.68L334,45.91h21.45l4.34,12.77h13.09L351.47,1.33Zm-1.2,35.18,7.47-21H345l7.23,21Zm48.84,8.07a10.47,10.47,0,0,1-1-4.9H372.91a19.08,19.08,0,0,0,1.93,9.16,18.11,18.11,0,0,0,5.42,6.34,23.25,23.25,0,0,0,7.87,3.66,36.14,36.14,0,0,0,9.2,1.16,35.31,35.31,0,0,0,10.32-1.36,21.83,21.83,0,0,0,7.47-3.82A15.74,15.74,0,0,0,419.66,49a17.51,17.51,0,0,0,1.53-7.31,14,14,0,0,0-2.05-7.91,17.22,17.22,0,0,0-4.86-4.94,21.28,21.28,0,0,0-5.66-2.69c-1.91-.56-3.39-.95-4.46-1.17-3.59-.9-6.5-1.66-8.72-2.24A31.78,31.78,0,0,1,390.23,21,5.75,5.75,0,0,1,387.69,19a5.25,5.25,0,0,1-.64-2.73,5.35,5.35,0,0,1,.81-3,6.86,6.86,0,0,1,2-2,8.14,8.14,0,0,1,2.78-1.13,15,15,0,0,1,3-.32,22.06,22.06,0,0,1,4.3.4,10.65,10.65,0,0,1,3.5,1.36A7.2,7.2,0,0,1,406,14.22a10.12,10.12,0,0,1,1.09,4.25h12.21A17.61,17.61,0,0,0,417.37,10a16.38,16.38,0,0,0-5.1-5.74A21.5,21.5,0,0,0,404.92,1a36.42,36.42,0,0,0-8.63-1,29.63,29.63,0,0,0-7.71,1,21.6,21.6,0,0,0-6.91,3.22,17,17,0,0,0-4.94,5.42,15,15,0,0,0-1.89,7.67,14.15,14.15,0,0,0,1.48,6.71,14.35,14.35,0,0,0,3.9,4.62,21.71,21.71,0,0,0,5.47,3,54.85,54.85,0,0,0,6.26,2q3.14.89,6.18,1.6A40.39,40.39,0,0,1,403.6,37a11.68,11.68,0,0,1,3.89,2.41A5,5,0,0,1,409,43.13a5.56,5.56,0,0,1-1.13,3.58A7.88,7.88,0,0,1,405,48.92,12.39,12.39,0,0,1,401.43,50a24.68,24.68,0,0,1-3.61.28,18.73,18.73,0,0,1-4.82-.6,11.9,11.9,0,0,1-4.06-1.84,9.17,9.17,0,0,1-2.77-3.26M441.8,11.93V58.68h12.62V11.93h17.19V1.33h-47v10.6Z"/></svg>
